<?xml version="1.0" encoding="UTF-8"?>
<svg viewBox="0 0 167 37" version="1.1" xmlns="http://www.w3.org/2000/svg" xmlns:xlink="http://www.w3.org/1999/xlink">
    <title>Lemonade</title>
    <defs></defs>
    <g stroke="none" stroke-width="1" fill="currentColor" fill-rule="evenodd">
        <g transform="translate(-600.000000, -93.000000)" fill="#FFFFFF">
            <g transform="translate(600.000000, 93.000000)">
                <path d="M154.554957,25.7654295 L154.439272,24.8322741 C154.414446,24.6764069 153.866736,20.9988122 156.46401,18.4120317 C157.219799,17.6572661 158.131968,17.2249843 158.965818,17.2249843 C159.676562,17.2249843 160.261128,17.5231538 160.557506,18.0918514 C161.992047,20.8442248 154.554957,25.7654295 154.554957,25.7654295 L154.554957,25.7654295 Z M143.249342,19.9699355 L143.150293,18.4171505 L143.135448,18.2221246 C143.132377,18.1734961 142.77227,13.2612493 143.093218,9.76485976 C143.445391,5.9623666 144.60147,3.50585928 146.036779,3.50585928 C146.330597,3.50585928 146.612131,3.65097697 146.832239,3.91587436 C147.548357,4.7753192 147.757972,7.0677693 147.309566,9.13320107 C146.587816,12.4314934 145.444279,15.0469392 144.606589,16.9621344 C144.369589,17.5037024 144.159718,17.9828212 143.994893,18.3992347 L143.249342,19.9699355 Z M135.406332,30.3262714 C133.573549,30.3262714 132.707961,28.6350232 132.707961,27.045127 C132.707961,18.8420101 137.408802,17.2249843 139.464252,17.8551074 C139.464252,17.8551074 139.53182,19.413267 139.697413,21.418553 C139.841507,23.1599654 139.971268,25.2213021 140.001981,25.3991801 C140.001981,25.3991801 138.294097,30.3262714 135.406332,30.3262714 L135.406332,30.3262714 Z M120.466119,18.174008 C120.466119,18.174008 119.943491,30.3262714 115.184552,30.3262714 C112.904643,30.3262714 112.727788,27.8771863 112.727788,27.1257479 C112.727788,18.4588686 119.550112,16.9158094 120.466119,18.174008 L120.466119,18.174008 Z M76.4368469,30.6167627 C73.7067402,30.6167627 72.734682,28.005412 72.734682,25.5614457 C72.734682,21.1091222 75.4261418,17.6552186 77.7403468,17.6552186 C79.9946619,17.6552186 80.8134123,20.6407529 80.8134123,22.6468067 C80.8134123,27.1160222 78.8905389,30.6167627 76.4368469,30.6167627 L76.4368469,30.6167627 Z M29.9753816,18.0388719 C32.8270595,16.0724887 34.1239049,18.5850468 32.9926523,20.2809019 C31.4275823,22.6273553 27.8628569,24.9487266 26.8270698,25.3185591 C26.8270698,25.3185591 26.0833096,20.7226535 29.9753816,18.0388719 L29.9753816,18.0388719 Z M146.342626,33.1357193 C149.714117,33.3194839 152.03037,31.0582584 152.03037,31.0582584 C153.141915,32.7474591 155.121863,33.5703046 157.920817,33.5703046 C160.998234,33.5703046 164.182377,31.339024 166.004667,29.2607953 C167.087291,28.0281906 167.204511,27.320006 166.748939,26.9330255 C166.334829,26.5813646 165.419333,27.0415438 164.581131,27.7732749 C163.450646,28.7596657 161.056076,30.1778265 158.960444,30.1778265 C156.419988,30.1778265 155.262118,28.5846031 155.262118,28.5846031 C160.436191,25.5396909 164.24713,22.0832279 164.24713,19.1166332 C164.24713,15.791979 161.691574,14.3052265 159.158797,14.3052265 C154.6279,14.3052265 149.73664,18.2996743 149.73664,24.7537007 C149.73664,26.8867004 150.480912,28.6990081 150.480912,28.6990081 C150.480912,28.6990081 149.582053,30.0475533 146.725,29.8197671 C143.688278,29.5779043 143.880744,24.2814923 143.880744,24.2814923 C143.880744,24.2814923 144.809805,22.6109752 145.160442,21.9887862 C147.215892,18.3462553 150.029179,13.3587622 150.483727,7.37822392 C150.736852,4.02720804 149.753276,2.22769741 148.883082,1.30759491 C148.109121,0.488332567 147.075125,0 146.116888,0 C142.604374,0 140.167318,3.47719405 139.57661,6.91190215 C138.998954,10.280066 139.231603,15.2903376 139.231603,15.2903376 C139.231603,15.2903376 136.075869,14.5373636 132.908618,16.6107295 C130.010871,18.5074971 128.725287,22.3035918 128.320646,24.2195549 C128.13637,25.0769522 128.073921,25.9768355 128.133811,26.8925871 C128.161708,27.3197501 128.297356,28.1423396 128.297356,28.1423396 C128.297356,28.1423396 127.255426,30.2607509 125.40396,30.2607509 C122.421241,30.2607509 124.390184,16.9183688 124.504589,16.1679542 C124.596727,15.563681 124.9791,14.2740019 122.875022,14.1836552 C121.603514,14.1291401 121.073208,14.5872718 120.975695,15.1851465 L120.890211,15.7804618 C120.890211,15.7804618 116.577118,12.9484912 111.694305,18.0488536 C109.092936,20.7615563 108.148519,24.6871564 108.105777,27.8367479 L108.103473,28.035101 C108.103473,28.035101 107.033646,31.0201234 104.543867,30.573253 C102.886147,30.2758513 102.677556,27.4298041 102.677556,26.3297761 C102.677556,24.2195549 103.181245,21.8679828 103.586653,19.9783815 C103.842593,18.7808405 104.064492,17.7483806 104.064492,17.1835221 C104.064492,15.1656951 103.478391,14.3052265 102.106299,14.3052265 C100.238964,14.3052265 98.5628167,15.733113 96.7059756,17.9375199 C94.3362318,20.7508069 92.5733205,25.1463118 92.5733205,25.1463118 C92.5733205,25.1463118 92.6508702,24.3605776 92.7732093,23.6029967 C92.8525505,23.1131285 93.0680516,20.8442248 93.4657815,18.7839118 C93.6864014,17.6434454 93.7667664,16.7097781 93.7808431,16.6091939 C93.8504586,16.0507339 93.7196735,15.5685439 93.4035882,15.2145795 C93.0926217,14.8667578 92.6168302,14.6666131 92.0990646,14.6666131 C91.2693087,14.6666131 90.2017851,15.2017826 89.6947689,16.7036355 C89.4631437,17.3818752 89.3303111,17.881981 89.1652301,18.6874226 L89.0098748,19.434766 L88.4329872,18.926982 C86.1477034,16.9101787 82.9819877,14.5066509 78.4423888,14.5066509 C72.049532,14.5066509 68.5992116,20.2179408 68.5992116,25.5931822 C68.5992116,26.2555536 68.6419535,26.8872123 68.7246219,27.47229 L68.7568703,27.7031475 C68.7568703,27.7031475 67.4224017,30.8215143 65.0800434,30.2533286 C64.0544939,30.0045554 63.4228352,28.9490609 63.4228352,26.435735 C63.4228352,24.3447093 63.8581883,21.503269 64.1184787,19.7982 C64.2065219,19.2195208 64.2771612,18.7626688 64.2966126,18.5497272 L64.354455,17.9190922 C64.5333567,16.0210449 64.5837767,15.1636476 63.9321548,14.7503053 C63.453036,14.4503442 62.9480674,14.3052265 62.3906312,14.3052265 C61.8546939,14.3052265 61.4323937,14.5447859 61.0561626,14.8032848 C60.4774834,15.2028063 58.5842989,17.6349994 55.0085682,23.2669481 C54.9507258,23.3580626 54.9174537,23.4066911 54.9141265,23.411042 L54.5240747,24.1358627 L53.5860564,26.1293755 L54.0974235,23.2329081 L54.1296719,23.043257 C54.2131082,22.5559482 54.3610412,21.6972711 54.4222108,21.4239278 L54.5721913,20.7953403 C54.8135423,19.7864268 55.3162074,17.6879789 55.3827517,17.3171225 C55.5979968,16.0878451 55.5132809,15.2665353 55.1232291,14.8076357 C54.8347852,14.4695397 54.3525952,14.3052265 53.6482497,14.3052265 C52.3511483,14.3052265 51.3071711,15.2568096 49.5074045,18.0770069 C49.2266389,18.5179907 48.1752394,20.2007929 47.3444598,21.532958 C46.2682342,23.2595259 45.291825,24.536664 45.291825,24.536664 L45.5188434,22.2283456 C45.6926263,21.1917906 46.3432245,16.43106 46.3519264,16.2076248 C46.349623,15.2038301 45.8351846,14.7364845 44.7320853,14.7364845 C44.2831675,14.7364845 43.1885142,14.83195 42.7298706,15.7157091 C42.309618,16.5234541 41.1433017,20.1821093 40.5761397,25.7772027 C40.5761397,25.7772027 36.0623907,29.99355 31.2366514,29.99355 C29.4583838,29.99355 28.0509725,29.3219648 27.540885,28.0100189 C27.540885,28.0100189 30.1225468,26.7083106 31.348497,25.8846973 C34.4878509,23.7757558 36.7715991,21.6266318 36.7715991,18.8668362 C36.7715991,15.4902264 33.565189,13.9696898 30.9162152,14.3052265 C26.3671465,14.8813463 22.5221674,19.5054053 22.5221674,24.8765516 C22.5221674,29.9290533 25.4237535,33.5703046 30.4734398,33.5703046 C36.3221693,33.5703046 40.359359,28.8907067 40.359359,28.8907067 L40.2377877,31.0267778 C40.1625415,32.1401146 40.6355177,33.5703046 42.5614624,33.5703046 C43.0728296,33.5703046 44.0064969,33.4123899 44.5027636,32.3548479 C47.4987913,26.004477 50.6363537,20.9680995 50.6673224,20.9184472 L50.774561,20.7467118 L51.3189443,19.7334474 L52.1295047,18.4215015 L51.4799303,21.2373479 C51.3619422,21.879756 50.3287144,27.5930935 50.1807814,30.112306 C50.1045114,31.3840693 50.1034876,32.6356135 50.6158785,33.1718068 C50.8754012,33.4443823 51.2923266,33.5703046 51.9268006,33.5703046 C53.3449614,33.5703046 54.2248814,33.094513 54.5422464,32.155471 C56.8510766,25.3886866 59.3390645,20.8229818 59.4439997,20.6312831 L59.5415127,20.454173 L60.84706,17.9838449 C60.84706,17.9838449 59.8171595,23.6193768 59.8171595,27.4625643 C59.8171595,29.2994421 60.1898074,32.6435476 62.8881776,33.2787895 C67.0418197,34.2569902 69.5937925,30.0877358 69.5937925,30.0877358 L69.8640646,30.8181871 C71.0495763,32.7479709 73.0197986,33.7686577 75.5623016,33.7686577 C80.8305603,33.7686577 84.2350675,29.7995479 84.2350675,23.6559761 C84.2350675,19.8442692 82.4235277,17.6605933 82.4235277,17.6605933 C82.4235277,17.6605933 84.4341885,18.3449756 85.9107034,19.3702692 C87.5103253,20.4807907 88.6464407,21.6570886 88.6464407,21.6570886 L88.6067701,21.9081653 C88.5594213,22.2007041 88.5166794,22.4952905 88.4736816,22.7932041 C88.3075769,23.9718055 88.1609235,25.2074814 88.0365369,26.4674715 C87.921876,27.641722 87.862754,28.703615 87.862754,29.6226937 C87.862754,30.1811537 87.8939786,30.696104 87.9602669,31.1985132 C88.0181093,31.6668825 88.1371211,32.0940455 88.3119278,32.4649019 C88.3677226,32.5782831 88.8918867,33.5703046 90.2166296,33.5703046 C91.1009006,33.5703046 91.6685744,33.2603618 92.0872914,32.3167129 C96.1812996,23.0862548 99.4609084,20.1281061 99.7490963,19.8340316 C100.508981,19.0587908 100.166022,20.5017777 100.166022,20.5017777 L100.136077,20.6916848 C100.130702,20.7223976 99.6247097,23.8486986 99.5110725,24.7995138 C99.3964116,25.7372762 99.3385693,26.6328085 99.3385693,27.4625643 C99.3385693,30.0337325 99.9318371,32.9639839 103.036895,33.4269784 C107.281396,34.0601728 108.752024,30.8465964 108.752024,30.8465964 C108.752024,30.8465964 110.287661,33.5703046 113.913556,33.5703046 C119.230443,33.5703046 120.87639,29.6375382 120.87639,29.6375382 C121.436386,32.0036989 122.433014,33.2787895 124.830399,33.2787895 C127.42537,33.2787895 129.227952,30.4580802 129.227952,30.4580802 C129.227952,30.4580802 130.729037,33.5703046 134.397162,33.5703046 C138.642942,33.5703046 140.813565,30.4332541 140.902632,30.3019571 L141.395316,29.5569173 C141.395316,29.5569173 142.777645,32.9412053 146.342626,33.1357193 L146.342626,33.1357193 Z M6.35574885,32.2673166 C2.60700298,32.1332043 2.40020387,29.321197 5.84310203,28.5950966 C8.98911037,27.9317014 11.6130021,28.9935944 11.6130021,28.9935944 C11.6130021,28.9935944 10.8190778,32.4272788 6.35574885,32.2673166 L6.35574885,32.2673166 Z M23.0028218,3.84114002 C25.1688378,4.01287543 25.0060602,6.92009221 24.4166316,8.74289333 C22.6892959,14.0863982 18.5576645,14.2458485 18.5576645,14.2458485 C18.5576645,14.2458485 19.8647476,3.59236683 23.0028218,3.84114002 L23.0028218,3.84114002 Z M17.2198688,23.0757613 C17.7547823,19.8611612 18.191671,16.7993569 18.191671,16.7993569 C18.191671,16.7993569 25.1365894,16.8438904 27.5019822,8.94022269 C28.8784249,4.34047799 26.9291896,0.42025266 22.8648704,0.337328261 C18.7608805,0.253636045 15.5816,3.75949532 14.0917762,14.2376585 C14.0917762,14.2376585 10.1249699,13.7326898 8.37255211,10.7143953 C7.54356407,9.28625289 6.29278773,9.95092777 6.68283953,11.3081749 C8.00143983,15.8976821 13.8417233,16.6365794 13.8417233,16.6365794 C13.8417233,16.6365794 13.5998605,18.6682272 13.2387298,21.1551913 C12.8883487,23.5679329 12.2868908,26.6036314 12.2868908,26.6036314 C12.2868908,26.6036314 8.60212984,25.4795451 4.68164857,26.2696303 C-1.34316726,27.4840632 -2.00605057,34.6913196 5.3660308,35.4030873 C14.0111552,36.2374501 15.6435374,30.4701094 15.6435374,30.4701094 C15.6435374,30.4701094 17.3419519,31.2660812 19.7521342,33.3453337 C22.4231188,35.6495571 23.6436943,37.0787232 24.1975474,36.5665883 C24.8046358,36.005057 23.467352,34.0443045 20.9916492,31.5440315 C18.1901354,28.7146204 16.2511377,27.984425 16.2511377,27.984425 C16.2511377,27.984425 16.7146442,26.1127394 17.2198688,23.0757613 L17.2198688,23.0757613 Z"></path>
            </g>
        </g>
    </g>
</svg>